<?xml version="1.0" encoding="utf-8"?>
<!-- Generator: Adobe Illustrator 16.0.0, SVG Export Plug-In . SVG Version: 6.00 Build 0)  -->
<!DOCTYPE svg PUBLIC "-//W3C//DTD SVG 1.1//EN" "http://www.w3.org/Graphics/SVG/1.1/DTD/svg11.dtd">
<svg version="1.1" id="Ebene_1" xmlns="http://www.w3.org/2000/svg" xmlns:xlink="http://www.w3.org/1999/xlink" x="0px" y="0px"
	 width="1792px" height="1792px" viewBox="0 0 1792 1792" enable-background="new 0 0 1792 1792" xml:space="preserve">
<path fill="#FFFFFF" d="M789,667c-6.667,12-92.333,164-257,456c-18,30.667-39.667,46-65,46H228c-14,0-24.333-5.667-31-17
	s-6.667-23.333,0-36l253-448c0.667,0,0.667-0.333,0-1L289,388c-8-14.667-8.333-27-1-37c6-10,16.667-15,32-15h239
	c26.667,0,48.667,15,66,45L789,667z M1595,25c7.333,10.667,7.333,23,0,37l-528,934v1l336,615c7.333,13.333,7.667,25.667,1,37
	c-6.667,10-17.333,15-32,15h-239c-28,0-50-15-66-45L728,997c12-21.333,189-335.333,531-942c16.667-30,38-45,64-45h241
	C1578.667,10,1589,15,1595,25z"/>
</svg>
