<?xml version="1.0" encoding="utf-8"?>
<!-- Generator: Adobe Illustrator 16.0.0, SVG Export Plug-In . SVG Version: 6.00 Build 0)  -->
<!DOCTYPE svg PUBLIC "-//W3C//DTD SVG 1.1//EN" "http://www.w3.org/Graphics/SVG/1.1/DTD/svg11.dtd">
<svg version="1.1" id="Ebene_1" xmlns="http://www.w3.org/2000/svg" xmlns:xlink="http://www.w3.org/1999/xlink" x="0px" y="0px"
	 width="24px" height="24px" viewBox="0 0 24 24" enable-background="new 0 0 24 24" xml:space="preserve">
<path fill="none" stroke="#FFFFFF" stroke-width="2" stroke-linecap="round" stroke-linejoin="round" d="M12.891,1.45l8,4
	C21.57,5.788,22,6.481,22,7.24v9.529c0,0.76-0.43,1.453-1.109,1.791l-8,4c-0.564,0.281-1.227,0.281-1.791,0l-8-4
	c-0.679-0.343-1.105-1.04-1.1-1.801V7.24c0-0.759,0.43-1.453,1.11-1.79l8-4C11.67,1.171,12.33,1.171,12.891,1.45z"/>
<polyline fill="none" stroke="#FFFFFF" stroke-width="2" stroke-linecap="round" stroke-linejoin="round" points="2.32,6.16 12,11 
	21.68,6.16 "/>
<line fill="none" stroke="#FFFFFF" stroke-width="2" stroke-linecap="round" stroke-linejoin="round" x1="12" y1="22.76" x2="12" y2="11"/>
<line fill="none" stroke="#FFFFFF" stroke-width="2" stroke-linecap="round" stroke-linejoin="round" x1="7" y1="3.5" x2="17" y2="8.5"/>
</svg>
