<?xml version="1.0" encoding="utf-8"?>
<!-- Generator: Adobe Illustrator 16.0.0, SVG Export Plug-In . SVG Version: 6.00 Build 0)  -->
<!DOCTYPE svg PUBLIC "-//W3C//DTD SVG 1.1//EN" "http://www.w3.org/Graphics/SVG/1.1/DTD/svg11.dtd">
<svg version="1.1" xmlns="http://www.w3.org/2000/svg" xmlns:xlink="http://www.w3.org/1999/xlink" x="0px" y="0px" width="400px"
	 height="400px" viewBox="0 0 400 400" enable-background="new 0 0 400 400" xml:space="preserve">
<g id="vscode" display="none">
	<g id="path951" display="inline">
		<path fill="#FFFFFF" d="M305.177,14.89c-5.077-2.112-9.232,0.659-9.232,6.159V327.33c0,5.5-4.451,9.339-9.892,8.531
			L20.941,296.484c-5.44-0.808-5.627-0.032-0.415,1.723l265.94,89.549c5.213,1.755,13.633,1.463,18.711-0.649l76.508-31.826
			c5.078-2.112,9.233-8.341,9.233-13.841V66.448c0-5.5,0.007-10.003,0.016-10.007s0.009-0.021,0-0.039s-0.016-1.338-0.016-2.937
			s-4.155-4.634-9.232-6.746L305.177,14.89z"/>
	</g>
	<g id="path887" display="inline">
		<path fill="#FFFFFF" d="M205.449,70.546c-5.062-2.151-12.404-0.747-16.315,3.119l-73.038,72.197
			c-3.912,3.866-10.707,4.323-15.1,1.014l-36.56-27.534c-4.394-3.309-12.256-4.59-17.473-2.848l-2.682,0.896
			c-5.217,1.742-6.285,6.332-2.373,10.198l39.226,38.774c3.912,3.867,3.912,10.194,0,14.06l-39.226,38.772
			c-3.912,3.867-2.844,8.456,2.373,10.199l2.683,0.896c5.216,1.743,13.079,0.462,17.472-2.847l36.561-27.536
			c4.393-3.309,7.988-6.016,7.989-6.016c0.001,0,3.202,3.164,7.113,7.03l73.032,72.19c3.912,3.867,11.253,5.271,16.316,3.12
			L239.3,261.85c5.063-2.151,9.204-8.411,9.204-13.911V98.841c0-5.5-4.142-11.76-9.203-13.911L205.449,70.546z M188.254,134.197
			c4.394-3.309,7.988-1.516,7.988,3.984v70.415c0,5.5-3.595,7.293-7.988,3.984l-44.056-33.176c-4.394-3.309-4.394-8.723,0-12.031
			L188.254,134.197z"/>
	</g>
</g>
<g id="reactjs" display="none">
	<g display="inline">
		<path fill="#FFFFFF" d="M394.184,200.617c0-25.583-32.037-49.827-81.156-64.862c11.335-50.064,6.297-89.895-15.901-102.646
			c-5.116-2.991-11.1-4.408-17.633-4.408v17.554c3.621,0,6.533,0.708,8.975,2.047c10.705,6.14,15.35,29.519,11.729,59.588
			c-0.865,7.399-2.282,15.192-4.014,23.143c-15.429-3.778-32.275-6.691-49.985-8.58c-10.627-14.563-21.648-27.787-32.746-39.358
			c25.661-23.851,49.748-36.918,66.121-36.918V28.622l0,0c-21.646,0-49.985,15.428-78.638,42.192
			c-28.653-26.606-56.991-41.877-78.638-41.877V46.49c16.294,0,40.461,12.988,66.123,36.682
			c-11.021,11.571-22.041,24.717-32.51,39.279c-17.79,1.889-34.635,4.802-50.064,8.659c-1.81-7.872-3.148-15.507-4.093-22.828
			c-3.7-30.069,0.866-53.449,11.493-59.667c2.361-1.417,5.431-2.047,9.052-2.047V29.015l0,0c-6.612,0-12.594,1.417-17.79,4.408
			c-22.12,12.752-27.079,52.504-15.665,102.41C39.88,150.947,8,175.113,8,200.617c0,25.583,32.038,49.828,81.157,64.862
			c-11.335,50.064-6.297,89.896,15.9,102.646c5.117,2.991,11.099,4.408,17.711,4.408c21.647,0,49.985-15.429,78.638-42.191
			c28.652,26.606,56.991,41.876,78.638,41.876c6.612,0,12.594-1.415,17.789-4.407c22.119-12.753,27.078-52.504,15.665-102.41
			C362.304,250.366,394.184,226.121,394.184,200.617z M291.694,148.113c-2.912,10.154-6.533,20.624-10.627,31.093
			c-3.227-6.297-6.611-12.595-10.312-18.892c-3.621-6.297-7.478-12.438-11.335-18.42C270.6,143.548,281.383,145.595,291.694,148.113
			z M255.643,231.947c-6.14,10.627-12.437,20.701-18.971,30.069c-11.729,1.022-23.615,1.574-35.58,1.574
			c-11.886,0-23.772-0.552-35.422-1.496c-6.533-9.366-12.91-19.364-19.049-29.911c-5.982-10.313-11.414-20.781-16.373-31.33
			c4.88-10.548,10.391-21.096,16.294-31.408c6.14-10.627,12.438-20.703,18.971-30.07c11.729-1.023,23.615-1.575,35.58-1.575
			c11.887,0,23.772,0.551,35.422,1.496c6.535,9.367,12.91,19.364,19.05,29.912c5.983,10.312,11.415,20.781,16.374,31.33
			C266.979,211.087,261.547,221.634,255.643,231.947z M281.067,221.714c4.252,10.547,7.873,21.096,10.863,31.328
			c-10.312,2.52-21.175,4.646-32.431,6.299c3.857-6.063,7.715-12.28,11.336-18.657C274.456,234.387,277.841,228.011,281.067,221.714
			z M201.25,305.703c-7.321-7.556-14.642-15.979-21.884-25.188c7.084,0.315,14.326,0.551,21.647,0.551
			c7.399,0,14.719-0.157,21.884-0.551C215.813,289.725,208.491,298.147,201.25,305.703z M142.685,259.341
			c-11.178-1.653-21.962-3.7-32.274-6.22c2.912-10.154,6.533-20.624,10.626-31.092c3.227,6.297,6.612,12.594,10.312,18.891
			C135.049,247.218,138.827,253.357,142.685,259.341z M200.856,95.531c7.321,7.557,14.64,15.979,21.882,25.189
			c-7.083-0.315-14.325-0.551-21.646-0.551c-7.399,0-14.72,0.157-21.883,0.551C186.293,111.51,193.614,103.087,200.856,95.531z
			 M142.605,141.895c-3.857,6.062-7.714,12.28-11.335,18.656c-3.621,6.297-7.006,12.594-10.233,18.892
			c-4.25-10.548-7.872-21.096-10.863-31.33C120.486,145.673,131.349,143.548,142.605,141.895z M71.367,240.448
			c-27.866-11.886-45.892-27.472-45.892-39.831c0-12.358,18.026-28.023,45.892-39.831c6.77-2.913,14.169-5.51,21.805-7.95
			c4.486,15.428,10.39,31.486,17.711,47.938c-7.242,16.373-13.067,32.352-17.475,47.703
			C85.615,246.036,78.215,243.36,71.367,240.448z M113.716,352.935c-10.706-6.14-15.349-29.52-11.729-59.589
			c0.866-7.399,2.283-15.193,4.015-23.143c15.429,3.778,32.274,6.69,49.985,8.58c10.626,14.563,21.647,27.787,32.746,39.357
			c-25.662,23.852-49.749,36.918-66.122,36.918C119.069,354.981,116.078,354.272,113.716,352.935z M300.433,292.952
			c3.699,30.069-0.865,53.449-11.492,59.667c-2.362,1.417-5.432,2.047-9.053,2.047c-16.294,0-40.46-12.989-66.122-36.683
			c11.02-11.571,22.041-24.718,32.51-39.279c17.791-1.89,34.635-4.802,50.064-8.659
			C298.149,277.996,299.567,285.631,300.433,292.952z M330.738,240.448c-6.77,2.912-14.17,5.511-21.805,7.95
			c-4.486-15.429-10.391-31.487-17.712-47.939c7.242-16.373,13.068-32.352,17.476-47.702c7.794,2.44,15.192,5.116,22.119,8.029
			c27.866,11.886,45.892,27.472,45.892,39.831C376.631,212.977,358.604,228.64,330.738,240.448z"/>
		<path fill="#FFFFFF" d="M122.218,28.937L122.218,28.937L122.218,28.937z"/>
		<circle fill="#FFFFFF" cx="201.014" cy="200.617" r="35.974"/>
		<path fill="#FFFFFF" d="M279.416,28.7L279.416,28.7L279.416,28.7z"/>
	</g>
</g>
<g id="timber">
	<title>Logo Tiny White</title>
	<polygon fill="#FFFFFF" points="340.169,329.13 322.604,306.611 221.609,306.611 221.609,282.403 303.802,282.403 286.35,259.886 
		221.609,259.886 221.609,235.679 307.292,235.679 291.078,213.16 221.609,213.16 221.609,188.953 273.739,188.953 257.526,166.435 
		221.609,166.435 221.609,142.228 270.926,142.228 255.048,119.709 221.609,119.709 221.609,95.502 237.937,95.502 222.059,72.983 
		221.609,72.983 221.609,32 147.524,135.247 189.183,135.36 105.077,252.566 148.425,252.566 62.63,369.775 221.609,369.775 
		221.609,329.13 	"/>
</g>
</svg>
