<?xml version="1.0" encoding="utf-8"?>
<!-- Generator: Adobe Illustrator 16.0.0, SVG Export Plug-In . SVG Version: 6.00 Build 0)  -->
<!DOCTYPE svg PUBLIC "-//W3C//DTD SVG 1.1//EN" "http://www.w3.org/Graphics/SVG/1.1/DTD/svg11.dtd">
<svg version="1.1" id="Ebene_1" xmlns="http://www.w3.org/2000/svg" xmlns:xlink="http://www.w3.org/1999/xlink" x="0px" y="0px"
	 width="400px" height="400px" viewBox="0 0 400 400" enable-background="new 0 0 400 400" xml:space="preserve">
<g>
	<path fill="#FFFFFF" d="M397.219,201.694c0-26.087-32.669-50.81-82.758-66.141c11.56-51.052,6.422-91.667-16.215-104.672
		c-5.217-3.05-11.318-4.495-17.98-4.495v17.9c3.692,0,6.662,0.722,9.152,2.087c10.915,6.261,15.652,30.101,11.96,60.764
		c-0.883,7.545-2.328,15.492-4.094,23.599c-15.733-3.853-32.911-6.823-50.971-8.749c-10.836-14.85-22.075-28.335-33.392-40.135
		c26.167-24.321,50.729-37.646,67.425-37.646v-17.9l0,0c-22.073,0-50.971,15.732-80.189,43.024
		C170.94,42.2,142.043,26.627,119.969,26.627v17.9c16.616,0,41.259,13.244,67.427,37.405
		c-11.238,11.799-22.476,25.205-33.151,40.055c-18.141,1.926-35.318,4.896-51.052,8.83c-1.845-8.027-3.21-15.813-4.173-23.278
		c-3.773-30.663,0.883-54.503,11.719-60.844c2.408-1.445,5.538-2.087,9.23-2.087v-17.9l0,0c-6.743,0-12.843,1.445-18.14,4.495
		c-22.556,13.004-27.613,53.54-15.974,104.43c-49.928,15.412-82.437,40.055-82.437,66.062c0,26.088,32.67,50.812,82.758,66.142
		c-11.559,51.052-6.422,91.668,16.214,104.671c5.218,3.051,11.318,4.496,18.061,4.496c22.074,0,50.971-15.733,80.19-43.024
		c29.217,27.131,58.115,42.703,80.188,42.703c6.742,0,12.842-1.444,18.141-4.495c22.555-13.004,27.611-53.539,15.973-104.43
		C364.709,252.424,397.219,227.701,397.219,201.694z M292.708,148.155c-2.97,10.355-6.662,21.03-10.837,31.707
		c-3.289-6.422-6.74-12.843-10.515-19.265c-3.691-6.421-7.626-12.682-11.559-18.782C271.196,143.5,282.193,145.587,292.708,148.155z
		 M255.945,233.642c-6.261,10.837-12.683,21.111-19.345,30.664c-11.96,1.042-24.082,1.604-36.282,1.604
		c-12.121,0-24.241-0.563-36.121-1.525c-6.662-9.552-13.164-19.746-19.425-30.501c-6.101-10.517-11.639-21.191-16.696-31.948
		c4.977-10.756,10.596-21.512,16.616-32.027c6.261-10.836,12.683-21.11,19.345-30.663c11.96-1.043,24.081-1.606,36.282-1.606
		c12.122,0,24.242,0.563,36.121,1.525c6.663,9.552,13.164,19.746,19.426,30.502c6.101,10.515,11.64,21.191,16.696,31.947
		C267.505,212.37,261.966,223.126,255.945,233.642z M281.871,223.207c4.336,10.755,8.029,21.513,11.078,31.946
		c-10.515,2.569-21.593,4.736-33.07,6.423c3.934-6.182,7.866-12.522,11.559-19.024C275.131,236.131,278.582,229.629,281.871,223.207
		z M200.479,308.854c-7.465-7.705-14.93-16.294-22.315-25.686c7.224,0.322,14.608,0.561,22.074,0.561
		c7.545,0,15.009-0.16,22.315-0.561C215.329,292.56,207.863,301.148,200.479,308.854z M140.759,261.576
		c-11.398-1.687-22.395-3.773-32.91-6.342c2.97-10.354,6.662-21.031,10.836-31.706c3.291,6.422,6.742,12.843,10.515,19.265
		C132.973,249.214,136.825,255.475,140.759,261.576z M200.078,94.535c7.466,7.706,14.93,16.294,22.313,25.687
		c-7.223-0.321-14.607-0.562-22.073-0.562c-7.545,0-15.01,0.16-22.314,0.562C185.228,110.83,192.693,102.241,200.078,94.535z
		 M140.679,141.814c-3.934,6.181-7.867,12.521-11.559,19.023c-3.692,6.421-7.144,12.843-10.435,19.265
		c-4.335-10.756-8.027-21.512-11.077-31.947C118.123,145.667,129.2,143.5,140.679,141.814z M68.035,242.311
		c-28.416-12.12-46.797-28.013-46.797-40.616c0-12.602,18.382-28.575,46.797-40.616c6.903-2.97,14.448-5.619,22.234-8.107
		c4.575,15.732,10.596,32.107,18.061,48.884c-7.385,16.695-13.325,32.99-17.82,48.644C82.563,248.01,75.019,245.28,68.035,242.311z
		 M111.219,357.017c-10.916-6.262-15.652-30.102-11.959-60.765c0.883-7.545,2.328-15.493,4.094-23.599
		c15.733,3.853,32.911,6.822,50.97,8.749c10.837,14.85,22.075,28.335,33.392,40.134c-26.167,24.322-50.73,37.646-67.426,37.646
		C116.678,359.104,113.627,358.381,111.219,357.017z M301.618,295.851c3.771,30.662-0.882,54.504-11.718,60.845
		c-2.409,1.445-5.539,2.087-9.231,2.087c-16.616,0-41.259-13.245-67.427-37.406c11.236-11.8,22.476-25.205,33.15-40.054
		c18.142-1.927,35.318-4.897,51.052-8.83C299.291,280.6,300.736,288.385,301.618,295.851z M332.522,242.311
		c-6.903,2.97-14.449,5.62-22.234,8.107c-4.576-15.732-10.597-32.107-18.063-48.884c7.386-16.696,13.326-32.991,17.82-48.643
		c7.947,2.488,15.493,5.218,22.556,8.188c28.416,12.121,46.797,28.014,46.797,40.616
		C379.319,214.298,360.937,230.271,332.522,242.311z"/>
	<path fill="#FFFFFF" d="M119.889,26.627L119.889,26.627L119.889,26.627z"/>
	<circle fill="#FFFFFF" cx="200.239" cy="201.695" r="36.683"/>
	<path fill="#FFFFFF" d="M280.188,26.387L280.188,26.387L280.188,26.387z"/>
</g>
</svg>
