<?xml version="1.0" encoding="utf-8"?>
<!-- Generator: Adobe Illustrator 16.0.0, SVG Export Plug-In . SVG Version: 6.00 Build 0)  -->
<!DOCTYPE svg PUBLIC "-//W3C//DTD SVG 1.1//EN" "http://www.w3.org/Graphics/SVG/1.1/DTD/svg11.dtd">
<svg version="1.1" id="Ebene_1" xmlns="http://www.w3.org/2000/svg" xmlns:xlink="http://www.w3.org/1999/xlink" x="0px" y="0px"
	 width="95px" height="101px" viewBox="2.333 10.667 95 101" enable-background="new 2.333 10.667 95 101" xml:space="preserve">
<polygon fill="#FFFFFF" points="14.528,94.667 2.333,94.667 2.333,111.667 21.625,111.667 36.333,96.135 36.333,69.971 
	46.333,66.45 46.333,53.646 36.333,49.165 36.333,23.669 21.917,10.667 2.333,10.667 2.333,27.667 14.712,27.667 18.333,30.917 
	18.333,90.161 "/>
<polygon fill="#D75056" points="85.219,27.667 97.333,27.667 97.333,10.667 78.122,10.667 63.333,23.961 63.333,50.126 
	52.333,53.646 52.333,66.45 63.333,70.93 63.333,96.428 77.829,111.667 97.333,111.667 97.333,94.667 85.034,94.667 81.333,90.667 
	81.333,31.073 "/>
</svg>
